{"title":"Flowers in the Attic 2014 DVD9rip English Klam","uid":10615604,"size":1420612481,"categoryP":"video","categoryS":"movies","magnet":"?xt=urn:btih:91714b586e82de60433f1a2c89a13d75c8eed728&amp;dn=Flowers+in+the+Attic+2014+DVD9rip+English+Klam&amp;tr=udp%3A%2F%2Ftracker.openbittorrent.com%3A80&amp;tr=udp%3A%2F%2Fopen.demonii.com%3A1337&amp;tr=udp%3A%2F%2Ftracker.coppersurfer.tk%3A6969&amp;tr=udp%3A%2F%2Fexodus.desync.com%3A6969","seeders":2,"leechers":0,"uploader":"Klambake","files":-1,"time":1406109980,"description":"With: Heather Graham, Kiernan Shipka and Ellen Burstyn\n\nDe jaren vijftig van de twintigste eeuw. Vier broers en zussen van wie hun vader onlangs overleed, worden door hun moeder Corinne teruggebracht naar het landgoed van hun welgestelde familie. In een poging om de liefde (en erfenis) van haar stervende vader terug voor zich te winnen, sluiten Corinne en haar moeder de vier kinderen op in de noordelijke vleugel van het grote huis, om hen onwetend te laten over de rijkdom van de grootvader en welke hun rechten zijn bij zijn overlijden.\n\nAfter the sudden death of their father, four children face cruel treatment from their ruthless grandmother.\n &lt;a href=&quot;\nhttp://www.imdb.com/title/tt3074694&quot; rel=&quot;nofollow&quot; target=&quot;_NEW&quot;&gt;\nhttp://www.imdb.com/title/tt3074694&lt;/a&gt;\t\n\n--------------------- Dutch Friends 4ever ---------------------\n---------------------------------------------------------------\n- Bezoek ook eens mijn vrienden op: &lt;a href=&quot; http://www.Film-Test.nl&quot; rel=&quot;nofollow&quot; target=&quot;_NEW&quot;&gt; http://www.Film-Test.nl&lt;/a&gt; --\n----- voor mijn Nederlandse Sync. ondertitels ---- en meer ----\n------- http://www.Film-Test.nl ---- Over Films en meer -------\n---------------------------------------------------------------\n &lt;a href=&quot;\nhttp://i.imgur.com/uA0pSoW.jpg&quot; rel=&quot;nofollow&quot; target=&quot;_NEW&quot;&gt;\nhttp://i.imgur.com/uA0pSoW.jpg&lt;/a&gt; &lt;a href=&quot;\nhttp://i.imgur.com/x4ux4HD.jpg&quot; rel=&quot;nofollow&quot; target=&quot;_NEW&quot;&gt;\nhttp://i.imgur.com/x4ux4HD.jpg&lt;/a&gt; &lt;a href=&quot;\nhttp://i.imgur.com/Df4OAJ4.jpg&quot; rel=&quot;nofollow&quot; target=&quot;_NEW&quot;&gt;\nhttp://i.imgur.com/Df4OAJ4.jpg&lt;/a&gt;\n\nGeneral:\n\nComplete name                            : Flowers in the AtticFlowers in the Attic.avi\nFormat                                   : AVI\nFormat/Info                              : Audio Video Interleave\nFile size                                : 1.32 GiB\nDuration                                 : 1h 29mn\nOverall bit rate                         : 2 105 Kbps\n\nVideo:\n\nFormat                                   : MPEG-4 Visual\nFormat profile                           : Simple@L3\nFormat settings, BVOP                    : No\nFormat settings, QPel                    : No\nFormat settings, GMC                     : No warppoints\nFormat settings, Matrix                  : Default (H.263)\nCodec ID                                 : XVID\nCodec ID/Hint                            : XviD\nDuration                                 : 1h 29mn\nSource duration                          : 1h 29mn\nBit rate                                 : 1 838 Kbps\nWidth                                    : 704 pixels\nHeight                                   : 396 pixels\nDisplay aspect ratio                     : 16:9\nFrame rate                               : 25.000 fps\nColor space                              : YUV\nChroma subsampling                       : 4:2:0\nBit depth                                : 8 bits\nScan type                                : Progressive\nCompression mode                         : Lossy\nBits/(Pixel*Frame)                       : 0.264\nStream size                              : 1.16 GiB (87%)\nWriting library                          : XviD 1.1.2 (UTC 2006-11-01)\n\nAudio:\n\nFormat                                   : AC-3\nFormat/Info                              : Audio Coding 3\nMode extension                           : CM (complete main)\nFormat settings, Endianness              : Big\nCodec ID                                 : 2000\nDuration                                 : 1h 29mn\nBit rate mode                            : Constant\nBit rate                                 : 256 Kbps\nChannel(s)                               : 2 channels\nChannel positions                        : Front: L R\nSampling rate                            : 48.0 KHz\nBit depth                                : 16 bits\nCompression mode                         : Lossy\nStream size                              : 165 MiB (12%)\nAlignment                                : Aligned on interleaves\nInterleave, duration                     : 32 ms (0.80 video frame)\n\n","torrent":{"xt":"urn:btih:91714b586e82de60433f1a2c89a13d75c8eed728","amp;dn":"Flowers+in+the+Attic+2014+DVD9rip+English+Klam","amp;tr":["udp%3A%2F%2Ftracker.openbittorrent.com%3A80","udp%3A%2F%2Fopen.demonii.com%3A1337","udp%3A%2F%2Ftracker.coppersurfer.tk%3A6969","udp%3A%2F%2Fexodus.desync.com%3A6969"],"infoHash":"91714b586e82de60433f1a2c89a13d75c8eed728","infoHashBuffer":{"type":"Buffer","data":[145,113,75,88,110,130,222,96,67,63,26,44,137,161,61,117,200,238,215,40]},"announce":[],"urlList":[]}}